<?xml version="1.0" encoding="UTF-8" standalone="no"?>
<svg
   width="24"
   height="24"
   viewBox="0 0 18 18"
   version="1.1"
   id="svg3"
   sodipodi:docname="employee.svg"
   inkscape:version="1.4.2 (f4327f4, 2025-05-13)"
   xmlns:inkscape="http://www.inkscape.org/namespaces/inkscape"
   xmlns:sodipodi="http://sodipodi.sourceforge.net/DTD/sodipodi-0.dtd"
   xmlns="http://www.w3.org/2000/svg"
   xmlns:svg="http://www.w3.org/2000/svg">
  <defs
     id="defs3" />
  <sodipodi:namedview
     id="namedview3"
     pagecolor="#ffffff"
     bordercolor="#000000"
     borderopacity="0.25"
     inkscape:showpageshadow="2"
     inkscape:pageopacity="0.0"
     inkscape:pagecheckerboard="0"
     inkscape:deskcolor="#d1d1d1"
     inkscape:zoom="25.21875"
     inkscape:cx="16"
     inkscape:cy="19.172243"
     inkscape:window-width="1920"
     inkscape:window-height="1009"
     inkscape:window-x="-8"
     inkscape:window-y="-8"
     inkscape:window-maximized="1"
     inkscape:current-layer="svg3" />
  <!-- Icon from Huge Icons by Hugeicons - undefined -->
  <g
     fill="none"
     stroke="currentColor"
     stroke-linecap="round"
     stroke-linejoin="round"
     stroke-width="1.5"
     id="g3"
     style="stroke-width:1.125;stroke-dasharray:none"
     transform="matrix(0.77938915,0,0,0.83381349,-0.3703719,-1.0318662)">
    <path
       d="m 15.5,11 a 3.5,3.5 0 1 0 -7,0 3.5,3.5 0 0 0 7,0"
       id="path1"
       style="stroke-width:1.125;stroke-dasharray:none" />
    <path
       d="m 15.483,11.35 q 0.484,0.149 1.017,0.15 A 3.5,3.5 0 1 0 13.017,7.65 m -2.034,0 a 3.5,3.5 0 1 0 -2.466,3.7 M 22,16.5 c 0,-2.761 -2.462,-5 -5.5,-5 m 1,8 c 0,-2.761 -2.462,-5 -5.5,-5 -3.038,0 -5.5,2.239 -5.5,5"
       id="path2"
       style="stroke-width:1.125;stroke-dasharray:none" />
    <path
       d="M 7.5,11.5 C 4.462,11.5 2,13.739 2,16.5"
       id="path3"
       style="stroke-width:1.125;stroke-dasharray:none" />
  </g>
</svg>
