<svg width="200" height="187" viewBox="0 0 200 187" fill="none" xmlns="http://www.w3.org/2000/svg">
<path d="M100 0C155.228 0 200 44.7715 200 100C200 137.257 179.624 169.753 149.409 186.958L135.5 130.5L118 141L126 109C126 109 147.234 102.655 158 109C165.537 113.442 171.995 126.49 172 126.5C172.004 126.488 176.5 111.996 176.5 102.5C176.5 95 172 86.5 166 84.5C157.462 81.654 154.34 83.6692 147 81C141.5 79 140.803 72.1346 135.5 67H46L69 84.5L38 109H69L23 146H60.5L46.5 175L42.9844 182.164C17.0058 164.103 0 134.038 0 100C0 44.7715 44.7715 0 100 0Z" fill="#C8102E"/>
<path d="M113.19 85.0315C111.121 81.5903 104 80.6966 104 80.6966C104 80.6966 112.445 79.1292 117.515 80.6966C120.554 81.636 122.709 81.9451 124.002 85.0315C124.822 86.9884 123.783 88.1044 124.813 89.9444C125.808 91.7222 129.138 92.5453 129.138 92.5453C129.318 92.738 128.817 93.3171 125.354 93.9903C121.681 94.7042 119.317 94.2793 118.596 93.9903C114.95 92.5284 115.623 89.0773 113.19 85.0315Z" fill="#C8102E"/>
</svg>
